<?xml version="1.0" encoding="utf-8"?>
<!-- Generator: Adobe Illustrator 27.8.0, SVG Export Plug-In . SVG Version: 6.00 Build 0)  -->
<svg version="1.1" id="Layer_1" xmlns="http://www.w3.org/2000/svg" xmlns:xlink="http://www.w3.org/1999/xlink" x="0px" y="0px"
	 viewBox="0 0 565.2 253.6" style="enable-background:new 0 0 565.2 253.6;" xml:space="preserve">
<g>
	<path d="M75.9,165.8H58.7L16.5,89.6v74h6.8v2.2H6.4v-2.2h6.8v-78H6.4v-2.2h34l32.2,59.1V85.6h-6.8v-2.2h16.9v2.2h-6.8V165.8z"/>
	<path d="M162.2,83.4l1.2,23.3h-2.2C154.4,91.3,148.7,86,133.8,86h-4.3v36.4h4.2c8,0,13.2-6.5,15.3-15.4h1.8v34.9h-2.1
		c-3-11.8-7.6-16.4-16.2-16.4h-3v37.8h4.7c15.6,0,26.5-10.2,30.2-23.1h2.5l-1,25.7H98.2v-2.6h7.3V86h-7.3v-2.6H162.2z"/>
	<path d="M222.9,83.4v2.2h-6.8v78h6.8v2.2h-37.5v-2.2h6.8v-78h-6.8v-2.2H222.9z"/>
	<path d="M291.4,152.2c0-9.8-7.6-13-22.8-17.1c-14.9-4-26.2-9.7-26.2-27.4c0-13.2,10.2-25.6,29.2-25.6c11.3,0,17.7,3.7,21.9,3.7
		c2.1,0,2.7-0.8,3.6-2.4h1.4l0.9,23.8h-2c-6.3-10.8-14.6-22.6-27.3-22.6c-8.9,0-15,4.9-15,11.9c0,8.7,8.4,11.7,20.8,14.8
		c13.7,3.5,28.8,8,28.8,27.6c0,17-12.1,28.2-30.2,28.2c-11.9,0-22.3-3.5-25.7-3.5c-2,0-2.7,1.3-3.7,3.5h-1.7l-1.2-28h2.1
		c6.2,11.8,18.1,25.6,31.6,25.6C283.2,164.5,291.4,160.8,291.4,152.2z"/>
	<path d="M393.5,113h-2.3c-6.6-19.2-10.5-27.1-21.7-27.1H368v77.5h10.5v2.5h-44.9v-2.5H344V85.9h-1.6c-11.2,0-15.4,8.8-21.7,27.1
		h-2.3l1.2-29.6h72.6L393.5,113z"/>
	<path d="M439.1,138.2h-24.4l-9.5,25.4h9.2v2.2h-18.8v-2.2h5.8l31.4-80.9h10.1l31,80.9h5.7v2.2h-40.2v-2.2h8.7L439.1,138.2z
		 M415.8,135.6h22.3l-10.7-30.9L415.8,135.6z"/>
	<path d="M557.4,113H555c-6.6-19.2-10.5-27.1-21.7-27.1h-1.5v77.5h10.5v2.5h-44.9v-2.5h10.5V85.9h-1.6c-11.2,0-15.4,8.8-21.7,27.1
		h-2.3l1.2-29.6h72.6L557.4,113z"/>
</g>
<g>
	<path d="M365.9,191.5c0.6-3,2.8-9.2,8.2-9.2c3,0,4.6,2,4.6,4.1c0,2.1-1.5,4.2-4.4,4.2c-2.1,0-4.4-1.3-5.3-3.7
		C368.8,186.8,366.7,189.2,365.9,191.5c7.4,2.6,11.1,9,11.1,15.3c0,8.1-6.1,16.2-18.4,16.2c-3.9,0-7.2-0.9-9.9-2.3
		c-6.4,7,2.1,5.5,11.4,5.5c7.2,0,17,0.8,17,10.3c0,7.1-8,9.6-16.5,9.6c-11.5,0-23.2-5.2-17-11.4c1.3,7.2,9,11,17.1,11
		c9.4,0,13.9-3.7,13.9-7c0-4-5.1-4.9-10.4-4.9c-4.7,0-9.5,0.7-11.5,0.7c-5.4,0-9.6-1.1-9.6-6.2c0-2.8,1.8-5.8,5.4-7.8
		c-5.5-3-8.2-8.4-8.2-13.8c0-8.2,6.1-16.4,18.4-16.4C361.4,190.4,363.8,190.8,365.9,191.5z M369.2,206.8c0-8.1-3-16-10.6-16
		c-7.5,0-10.6,7.9-10.6,16c0,7.9,3,15.9,10.6,15.9C366.2,222.7,369.2,214.8,369.2,206.8z"/>
	<path d="M397.6,191.7v6.1c3-4.2,6.2-6.1,9.6-6.1c4.7,0,6.9,2.7,6.9,5.1c0,1.6-1.1,3.1-3.3,3.1c-1.9,0-4-1.3-4-4
		c0-1.9-0.8-3.2-2.4-3.2c-1.6,0-4.3,2.1-6.8,5.8v28.4c0,2.2,1.1,2.9,2.3,3.7h-12.3c1.2-0.9,2.3-1.6,2.3-3.7v-26
		c0-2.2-1.1-2.9-2.3-3.7L397.6,191.7z"/>
	<path d="M461.5,211.1c0,10.1-6.4,20.2-19.4,20.2s-19.4-10.1-19.4-20.2c0-10.1,6.5-20.2,19.4-20.2S461.5,201,461.5,211.1z
		 M453.5,211.2c0-10-3.8-19.9-11.4-19.9c-7.5,0-11.4,10-11.4,19.9c0,9.9,3.8,19.8,11.4,19.8C449.7,230.9,453.5,221.1,453.5,211.2z"
		/>
	<path d="M470.4,197.1l10-5.4v26.3c0,7.6,2.8,10.3,6.1,10.3c3.4,0,7.5-2.9,9.7-5.9v-21.5c0-2.2-1.1-2.9-2.3-3.7l10-5.4v32.8
		c0,2.8,1,4.9,3.6,4.3c-1.2,1.8-3.3,2.6-5.3,2.6c-3.1,0-6.1-1.9-6.1-6.1v-2.4c-3.4,4.9-9.1,8.5-14.1,8.5c-5.2,0-9.6-3.9-9.6-14.2
		v-16.3C472.7,198.7,471.6,198,470.4,197.1z"/>
	<path d="M516.6,250c1.2-0.9,2.3-1.6,2.3-3.7v-46.2c0-2.2-1.1-2.9-2.3-3.7l10-5.4v6.7c2.7-3.6,6.7-7.1,11.4-7.1
		c12.2,0,18.4,10,18.4,20.1c0,11.9-6.5,20.5-17.1,20.5c-5.4,0-9.8-3.3-12.7-6.9v22.2c0,2.2,1.1,2.9,2.3,3.7H516.6z M526.7,223.5
		c3.1,4,7.9,7.1,11.6,7.1c8.6,0,11.1-11.2,11.1-19.9c0-9.9-3.8-19.8-11.4-19.8c-7.7,0-11.4,9.5-11.4,19.1V223.5z"/>
</g>
<g>
	<path d="M17.2,22.3h5.1v0.4h-5.1v30.1c0,4.5,1.4,6.6,3.6,6.6c1.5,0,3.3-1.1,5.2-3.4c-1.5,3.5-4.8,6-8.8,6s-7.8-2.6-7.8-9.2V22.7h-3
		v-0.4h3c2.6-2.1,5.6-5.1,7.8-10.7V22.3z"/>
	<path d="M44.9,2.9V30c3.4-4.9,9.1-8.5,14.1-8.5c5.2,0,9.6,3.9,9.6,14.2v21.7c0,2.2,1.1,2.9,2.3,3.7H58.6c1.2-0.9,2.3-1.6,2.3-3.7
		V34.9c0-7.6-2.8-10.3-6.1-10.3c-3.4,0-7.5,2.9-9.7,5.9v26.9c0,2.2,1.1,2.9,2.3,3.7H34.9c1.2-0.9,2.3-1.6,2.3-3.7V12
		c0-2.2-1.1-2.9-2.3-3.7L44.9,2.9z"/>
	<path d="M87.7,40.7c0.2,8.5,4.2,16.6,14,16.6c5,0,10.3-2.1,14.6-6.1c-3.9,7.3-10.6,10.8-17.3,10.8c-12.5,0-19.3-10-19.3-20.1
		c0-13.6,9.4-20.5,18.7-20.5c8.8,0,17.6,6.4,18.2,19.2H87.7z M109.6,40.3c-0.4-12.4-5.8-18.4-11.3-18.4C92,21.9,87.7,31,87.7,40
		c0,0.1,0,0.2,0,0.3H109.6z"/>
</g>
</svg>
